<?xml version="1.0" encoding="UTF-8"?>
<svg version="1.1" xmlns="http://www.w3.org/2000/svg" width="512" height="512">
<path d="M0 0 C1.18165237 -0.00960754 2.36330475 -0.01921509 3.58076477 -0.02911377 C4.85888535 -0.03336365 6.13700592 -0.03761353 7.45385742 -0.04199219 C8.76714523 -0.04769226 10.08043304 -0.05339233 11.43351746 -0.05926514 C14.21512234 -0.06976557 16.99669841 -0.07561425 19.77832031 -0.07910156 C23.33251136 -0.08457938 26.88631798 -0.10859566 30.44038868 -0.13707352 C33.84070397 -0.1602459 37.24096729 -0.16215272 40.64135742 -0.16699219 C41.9134053 -0.17933899 43.18545319 -0.19168579 44.49604797 -0.20440674 C46.28271126 -0.19990509 46.28271126 -0.19990509 48.10546875 -0.1953125 C49.14899002 -0.19895813 50.19251129 -0.20260376 51.26765442 -0.20635986 C56.47503877 0.43599169 60.30323064 2.66009581 63.55932617 6.72363281 C64.05045898 7.32304688 64.5415918 7.92246094 65.04760742 8.54003906 C68.60166362 13.34438214 67.51041986 19.59461626 67.54199219 25.33691406 C67.55920805 27.52114591 67.60309651 29.70386456 67.6472168 31.88769531 C67.65734394 33.27830919 67.66585998 34.66893593 67.67260742 36.05957031 C67.6944812 37.95715088 67.6944812 37.95715088 67.71679688 39.89306641 C67.16759892 43.71206058 66.28356007 44.86664106 63.24682617 47.16113281 C60.33897736 47.86995584 58.30428717 47.5008507 55.24682617 47.16113281 C52.57251128 45.34950014 52.28762258 44.28352204 51.24682617 41.16113281 C50.91682617 33.24113281 50.58682617 25.32113281 50.24682617 17.16113281 C33.08682617 17.16113281 15.92682617 17.16113281 -1.75317383 17.16113281 C-1.92327226 27.33175588 -1.92327226 27.33175588 -2.05102539 37.50292969 C-2.27179097 46.72860711 -2.87472551 53.10097096 -9.42114258 59.95410156 C-13.48953598 62.64887562 -17.43409623 64.03231119 -22.06567383 65.47363281 C-29.69825119 67.9648847 -36.8591005 70.85942993 -43.93212891 74.67211914 C-49.53009856 77.53459634 -54.59673105 78.30393668 -60.73242188 76.61694336 C-67.47656654 73.76394716 -72.26566262 68.08712555 -77.25317383 62.91113281 C-78.62989258 61.50734375 -78.62989258 61.50734375 -80.03442383 60.07519531 C-82.28340397 57.77936142 -84.52246312 55.47469849 -86.75317383 53.16113281 C-92.1827409 54.64755174 -95.37245096 58.36450894 -99.20629883 62.25097656 C-99.90712585 62.95130508 -100.60795288 63.65163361 -101.33001709 64.3731842 C-102.80605723 65.85156018 -104.27841667 67.33361903 -105.74731445 68.8190918 C-108.00026806 71.09569654 -110.26630482 73.35863154 -112.53442383 75.62011719 C-113.96751048 77.05877885 -115.39982902 78.49820614 -116.83129883 79.93847656 C-117.51041321 80.61667953 -118.18952759 81.29488251 -118.88922119 81.99363708 C-119.51367126 82.62761917 -120.13812134 83.26160126 -120.78149414 83.91479492 C-121.33266907 84.47057724 -121.88384399 85.02635956 -122.45172119 85.59898376 C-123.98336742 87.2445797 -123.98336742 87.2445797 -124.75317383 90.16113281 C-123.80944711 91.83050251 -123.80944711 91.83050251 -122.19067383 93.47363281 C-121.23741211 94.51777344 -121.23741211 94.51777344 -120.26489258 95.58300781 C-118.29387753 97.60613368 -116.29992266 99.58603703 -114.27270508 101.55175781 C-113.65403564 102.15592529 -113.03536621 102.76009277 -112.39794922 103.38256836 C-111.15570978 104.5895942 -109.90384298 105.78680731 -108.64160156 106.97290039 C-103.69305649 111.76661244 -100.72983787 116.3759712 -100.27270508 123.43457031 C-100.48187045 129.14853289 -102.9231494 133.75064042 -105.44067383 138.78613281 C-108.57465217 145.30430405 -111.44275324 151.6615563 -113.50317383 158.59863281 C-115.22198988 164.04956345 -116.97100235 168.75409219 -121.75317383 172.16113281 C-126.85192275 174.6817064 -130.66153576 175.55688305 -136.43676758 175.67285156 C-137.71865967 175.70596436 -139.00055176 175.73907715 -140.32128906 175.77319336 C-142.73163452 175.81053589 -142.73163452 175.81053589 -145.19067383 175.84863281 C-152.89411133 176.00332031 -152.89411133 176.00332031 -160.75317383 176.16113281 C-160.75317383 193.32113281 -160.75317383 210.48113281 -160.75317383 228.16113281 C-151.19567508 228.41008891 -151.19567508 228.41008891 -141.63769531 228.63916016 C-139.83667358 228.69257568 -139.83667358 228.69257568 -137.99926758 228.74707031 C-136.77908936 228.77849121 -135.55891113 228.80991211 -134.30175781 228.84228516 C-128.6635987 229.34888549 -123.44271033 230.47475568 -119.15161133 234.37988281 C-115.98995753 238.40701726 -114.51690198 243.40931476 -112.75317383 248.16113281 C-111.78094304 250.64336781 -110.80219689 253.12213512 -109.81567383 255.59863281 C-109.56865723 256.22970947 -109.32164063 256.86078613 -109.06713867 257.51098633 C-107.37617874 261.78210847 -105.43397697 265.86202654 -103.37817383 269.97363281 C-100.83299182 275.41137075 -99.45482612 280.19275926 -100.75317383 286.16113281 C-105.55621467 297.32456411 -116.20250615 305.74067834 -124.75317383 314.16113281 C-123.39768417 317.17761279 -121.87262092 319.30489969 -119.56030273 321.66040039 C-118.91267975 322.32401077 -118.26505676 322.98762115 -117.59780884 323.67134094 C-116.89884491 324.37566757 -116.19988098 325.0799942 -115.47973633 325.80566406 C-114.75958344 326.53484543 -114.03943054 327.26402679 -113.29745483 328.01530457 C-111.77534485 329.55190466 -110.25042237 331.08572317 -108.72290039 332.61694336 C-106.38156584 334.97022349 -104.05952769 337.34150669 -101.73754883 339.71386719 C-100.25692969 341.20394475 -98.7751962 342.69291604 -97.29223633 344.18066406 C-96.24986313 345.25233574 -96.24986313 345.25233574 -95.18643188 346.34565735 C-94.53250458 346.99350693 -93.87857727 347.64135651 -93.20483398 348.30883789 C-92.63350739 348.88523514 -92.06218079 349.46163239 -91.47354126 350.05549622 C-89.79930998 351.38257203 -89.79930998 351.38257203 -87.67263794 350.95826721 C-84.88763608 349.80168358 -83.32938558 347.98239768 -81.26879883 345.79394531 C-80.41543945 344.90835937 -79.56208008 344.02277344 -78.68286133 343.11035156 C-76.9077016 341.23944707 -75.13680323 339.36448932 -73.37036133 337.48535156 C-67.28427433 331.18908438 -63.25059201 328.01907322 -54.49926758 326.65332031 C-48.79394133 327.4267222 -43.99967068 329.85920746 -38.81567383 332.28613281 C-30.26993844 336.19576314 -21.80498233 339.76135346 -12.86254883 342.64941406 C-8.36203264 344.8374791 -5.86146971 347.9396737 -3.64135742 352.38964844 C-2.52243959 355.88111496 -2.42671954 358.98447043 -2.33911133 362.64941406 C-2.3100621 363.70421211 -2.3100621 363.70421211 -2.28042603 364.78031921 C-2.220972 367.011303 -2.17438334 369.24233936 -2.12817383 371.47363281 C-2.08996246 372.99253467 -2.05090891 374.51141559 -2.01098633 376.03027344 C-1.91529966 379.74036748 -1.8311431 383.45061932 -1.75317383 387.16113281 C0.73037658 388.40290802 2.37790239 388.28149962 5.15551758 388.2746582 C6.17642487 388.27458267 7.19733215 388.27450714 8.24917603 388.27442932 C9.3544162 388.26926804 10.45965637 388.26410675 11.59838867 388.25878906 C12.72755707 388.25737411 13.85672546 388.25595917 15.02011108 388.25450134 C18.63737606 388.24889025 22.25457981 388.23633584 25.87182617 388.22363281 C28.31974195 388.21861924 30.76765869 388.21405609 33.21557617 388.20996094 C39.22601383 388.19891721 45.23641563 388.18216825 51.24682617 388.16113281 C51.2232605 386.81535156 51.2232605 386.81535156 51.19921875 385.44238281 C51.14776977 382.08018085 51.11032197 378.71840361 51.08203125 375.35595703 C51.067042 373.9069962 51.04664346 372.45807998 51.02050781 371.00927734 C50.71682912 353.72936429 50.71682912 353.72936429 56.37182617 346.41113281 C62.68094681 341.47356014 70.48469955 339.30660581 77.94140625 336.59643555 C84.10423529 334.31563566 89.90985878 331.49113163 95.74682617 328.48144531 C101.21321769 326.41934673 105.76356295 326.26533086 111.10620117 328.51660156 C117.90275942 332.28194798 122.92992421 338.73273531 128.17651367 344.33496094 C129.02987305 345.22248047 129.88323242 346.11 130.76245117 347.02441406 C131.52847656 347.84208252 132.29450195 348.65975098 133.08374023 349.50219727 C135.04897101 351.402831 135.04897101 351.402831 137.15757751 350.9630127 C139.63579605 350.01184129 140.94947558 348.85182467 142.83789062 346.98999023 C143.52152176 346.32227097 144.20515289 345.6545517 144.90950012 344.96659851 C145.63570053 344.24059952 146.36190094 343.51460052 147.11010742 342.76660156 C147.86148483 342.02283768 148.61286224 341.27907379 149.38700867 340.51277161 C150.97183338 338.93874898 152.55270072 337.36073326 154.12988281 335.77905273 C156.55360504 333.35435624 158.99786293 330.95176683 161.4440918 328.54980469 C162.97989587 327.01920582 164.51444511 325.4873466 166.04760742 323.95410156 C167.15208977 322.87421211 167.15208977 322.87421211 168.27888489 321.77250671 C169.28069038 320.75674309 169.28069038 320.75674309 170.30273438 319.72045898 C171.19397758 318.83229744 171.19397758 318.83229744 172.10322571 317.92619324 C173.46978613 316.21685242 173.46978613 316.21685242 173.04969788 314.0738678 C171.88444791 311.29781483 170.06470922 309.73416034 167.87963867 307.67675781 C166.99405273 306.82339844 166.1084668 305.97003906 165.19604492 305.09082031 C163.32514043 303.31566058 161.45018267 301.54476222 159.57104492 299.77832031 C153.25922329 293.67719809 150.02338354 289.62249526 148.77026367 280.80957031 C149.44884823 275.61450493 151.57835848 271.45825298 153.87182617 266.78613281 C157.50112907 259.16414969 160.75079294 251.62092061 163.1809082 243.52880859 C164.99370929 237.8435314 167.9483325 234.73083581 172.80932617 231.41113281 C177.37317656 229.07069671 181.30512526 229.04251928 186.41870117 229.06347656 C187.10111877 229.06489151 187.78353638 229.06630646 188.4866333 229.06776428 C190.65674301 229.07334197 192.82674788 229.08589027 194.99682617 229.09863281 C196.47208509 229.1036507 197.94734564 229.1082131 199.42260742 229.11230469 C203.03071415 229.12330407 206.63875992 229.14055328 210.24682617 229.16113281 C210.27211791 221.93457789 210.28966836 214.70803432 210.30175781 207.48144531 C210.30679606 205.02148004 210.31362677 202.56151777 210.32226562 200.1015625 C210.3343534 196.57193257 210.34005946 193.04234212 210.34448242 189.51269531 C210.34964371 188.40745514 210.35480499 187.30221497 210.36012268 186.16348267 C210.36019821 185.14257538 210.36027374 184.12166809 210.36035156 183.06982422 C210.36257217 182.16825592 210.36479279 181.26668762 210.36708069 180.33779907 C210.38875467 178.11399533 210.38875467 178.11399533 209.24682617 176.16113281 C196.37682617 175.83113281 183.50682617 175.50113281 170.24682617 175.16113281 C170.48319993 183.73274154 170.48319993 183.73274154 170.78735352 192.30200195 C170.9250819 202.21770489 170.9250819 202.21770489 167.41088867 206.46972656 C163.59196647 210.24178718 160.02825614 210.28231575 154.82885742 210.25878906 C152.9484375 210.25395508 152.9484375 210.25395508 151.0300293 210.24902344 C149.71969727 210.24064453 148.40936523 210.23226562 147.05932617 210.22363281 C145.72404136 210.21861599 144.38875476 210.2140534 143.0534668 210.20996094 C139.78454144 210.19815976 136.51570626 210.18169579 133.24682617 210.16113281 C133.11727539 211.59779297 133.11727539 211.59779297 132.98510742 213.06347656 C130.02579298 242.46605909 116.44309897 268.32115984 93.7019043 287.46142578 C70.09061686 306.54264063 40.67231765 313.42111559 10.79370117 310.95898438 C-10.56247964 308.48547567 -30.64589677 299.31684558 -46.75317383 285.16113281 C-47.57043945 284.48695313 -48.38770508 283.81277344 -49.22973633 283.11816406 C-68.02196937 267.14767499 -79.35743346 244.17368466 -83.75317383 220.16113281 C-83.8846582 219.44441406 -84.01614258 218.72769531 -84.15161133 217.98925781 C-88.13554361 190.20940569 -80.93565982 160.49084864 -64.37817383 137.84863281 C-62.85993141 135.93398922 -61.31826642 134.0376736 -59.75317383 132.16113281 C-58.98231445 131.2265625 -58.21145508 130.29199219 -57.41723633 129.32910156 C-38.95038622 107.96373291 -12.67625265 95.83692997 15.24682617 93.16113281 C27.54371415 92.39737848 39.19889496 93.76863583 51.24682617 96.16113281 C51.23111572 95.49057861 51.21540527 94.82002441 51.19921875 94.12915039 C51.13667959 91.07739771 51.09777554 88.02578013 51.05932617 84.97363281 C51.03418945 83.91853516 51.00905273 82.8634375 50.9831543 81.77636719 C50.96865234 80.24399414 50.96865234 80.24399414 50.95385742 78.68066406 C50.93029175 77.27457886 50.93029175 77.27457886 50.90625 75.84008789 C51.35048689 72.34574284 52.74146411 69.66649487 55.24682617 67.16113281 C62.44800837 66.57087198 62.44800837 66.57087198 65.34521484 68.71166992 C67.88802494 71.98706005 67.82385224 74.7968838 67.77807617 78.77832031 C67.78190308 79.51309601 67.78572998 80.2478717 67.78967285 81.00491333 C67.7923895 82.55651217 67.78504537 84.108157 67.76831055 85.65966797 C67.74695497 88.02188608 67.76808483 90.38104213 67.79370117 92.74316406 C67.79105665 94.25488947 67.78592909 95.76661299 67.77807617 97.27832031 C67.7861731 97.97851288 67.79427002 98.67870544 67.8026123 99.40011597 C67.70760655 104.42851582 66.41086661 107.29500815 63.24682617 111.16113281 C56.74896317 115.49304148 48.32462572 113.08255072 41.05932617 111.66113281 C17.27202545 107.12354862 -6.2325176 112.37518547 -26.75317383 125.16113281 C-30.21690339 127.68795192 -33.49411049 130.37830584 -36.75317383 133.16113281 C-37.96553711 134.07378906 -37.96553711 134.07378906 -39.20239258 135.00488281 C-55.8575119 149.08394233 -65.82314788 172.82362372 -67.75317383 194.16113281 C-69.14828618 217.9776937 -62.6709836 242.85567102 -46.70556641 261.09130859 C-44.45938161 263.52727292 -42.12521351 265.84653569 -39.75317383 268.16113281 C-38.95137695 268.97195313 -38.14958008 269.78277344 -37.32348633 270.61816406 C-19.28709391 287.97449579 5.20577022 294.76945555 29.66870117 294.44238281 C42.11818307 294.01279407 54.08586493 290.62968402 65.24682617 285.16113281 C66.1672168 284.72027344 67.08760742 284.27941406 68.03588867 283.82519531 C75.22172232 280.16143224 81.23481335 275.51110851 87.24682617 270.16113281 C88.03057617 269.47277344 88.81432617 268.78441406 89.62182617 268.07519531 C106.628071 252.19089025 114.7279749 229.45137427 116.55932617 206.71972656 C117.35925614 202.57917997 118.5220065 200.36923976 121.24682617 197.16113281 C125.56916238 194.5541684 128.71880475 193.79644679 133.73901367 193.86816406 C134.9378418 193.87783203 136.13666992 193.8875 137.37182617 193.89746094 C138.60932617 193.92259766 139.84682617 193.94773437 141.12182617 193.97363281 C142.3825293 193.98716797 143.64323242 194.00070312 144.94213867 194.01464844 C148.04414072 194.04989846 151.14526152 194.09917777 154.24682617 194.16113281 C154.23111572 193.43522949 154.21540527 192.70932617 154.19921875 191.96142578 C154.13662262 188.65307493 154.09775706 185.344849 154.05932617 182.03613281 C154.02162109 180.32296875 154.02162109 180.32296875 153.9831543 178.57519531 C153.88718074 167.57022724 153.88718074 167.57022724 157.24682617 163.16113281 C162.65734995 158.39642898 167.55462755 158.5896576 174.55932617 158.66503906 C175.64640869 158.66358383 176.73349121 158.6621286 177.85351562 158.66062927 C180.14643032 158.66228547 182.43935646 158.67381527 184.73217773 158.69458008 C188.23493845 158.72353455 191.73618469 158.71518199 195.23901367 158.70214844 C197.47079184 158.70838631 199.70256524 158.71677763 201.93432617 158.72753906 C202.9782251 158.72460342 204.02212402 158.72166779 205.09765625 158.71864319 C211.4771073 158.80111013 216.03333164 159.44888849 221.07495117 163.70410156 C221.54416992 164.24679687 222.01338867 164.78949219 222.49682617 165.34863281 C222.97635742 165.8784375 223.45588867 166.40824219 223.94995117 166.95410156 C227.8607248 173.60948439 227.55411845 181.30939942 227.54760742 188.78222656 C227.55189255 189.88156021 227.55617767 190.98089386 227.56059265 192.11354065 C227.56631303 194.42895827 227.5668532 196.74439386 227.5625 199.05981445 C227.55933917 202.58413596 227.58283205 206.10761792 227.6081543 209.63183594 C227.61042757 211.89029843 227.61113066 214.14876316 227.61010742 216.40722656 C227.61931717 217.4512413 227.62852692 218.49525604 227.63801575 219.57090759 C227.59021101 227.20393642 226.85414947 234.00489934 221.87182617 240.03613281 C216.7582711 244.1756774 213.12336959 245.61241072 206.53979492 245.67285156 C205.81440018 245.69080276 205.08900543 245.70875397 204.34162903 245.72724915 C202.03925275 245.78115498 199.73708138 245.81518282 197.43432617 245.84863281 C195.86724049 245.88182349 194.30018177 245.91631477 192.7331543 245.95214844 C188.9045266 246.03686941 185.07595757 246.10377348 181.24682617 246.16113281 C178.97614933 250.61459438 177.11072335 255.08265433 175.43432617 259.78613281 C173.16488286 266.07365461 170.47074439 271.88582534 167.15307617 277.70800781 C165.98360615 280.06411651 165.98360615 280.06411651 166.92480469 282.0456543 C168.50800133 284.5790613 170.32978226 286.40019124 172.49291992 288.46191406 C173.33016602 289.27466797 174.16741211 290.08742188 175.0300293 290.92480469 C176.79167859 292.61645467 178.55727778 294.30400142 180.3269043 295.98730469 C185.74831806 301.26703662 189.42025232 305.15701005 190.68041992 312.78613281 C190.68170898 313.56988281 190.68299805 314.35363281 190.68432617 315.16113281 C190.71333008 316.33675781 190.71333008 316.33675781 190.74291992 317.53613281 C189.26248277 325.36962702 183.17651709 330.67146573 177.75463867 336.05175781 C176.9310788 336.87818787 176.10751892 337.70461792 175.25900269 338.55609131 C173.52278967 340.29433859 171.78281123 342.02883206 170.03930664 343.75976562 C167.37708275 346.40590799 164.73126132 349.06769376 162.08666992 351.73144531 C160.39362072 353.42251237 158.69964129 355.11264873 157.00463867 356.80175781 C156.21695099 357.59551819 155.42926331 358.38927856 154.6177063 359.20709229 C149.52809871 364.23230572 144.90921485 368.58627644 137.37182617 368.59863281 C136.20006836 368.62763672 136.20006836 368.62763672 135.00463867 368.65722656 C125.65313961 366.97501639 120.07382052 360.47722869 113.74682617 353.91113281 C112.82901367 352.97527344 111.91120117 352.03941406 110.96557617 351.07519531 C108.71659603 348.77936142 106.47753688 346.47469849 104.24682617 344.16113281 C99.72766313 345.62440173 95.51083728 347.39513863 91.24682617 349.47363281 C84.91749207 352.50567768 78.5255349 354.97078602 71.87963867 357.21582031 C69.35466385 357.91110922 69.35466385 357.91110922 68.24682617 359.16113281 C68.14854436 361.51399177 68.10969687 363.84281337 68.10620117 366.19628906 C68.08785392 367.66049709 68.06828187 369.12469017 68.04760742 370.58886719 C68.01878552 372.89730631 67.99683019 375.20479779 67.99633789 377.51342773 C67.97313782 392.87353225 67.97313782 392.87353225 63.99780273 398.6159668 C56.83437753 404.93739988 50.49472286 404.75014706 41.21166992 404.69238281 C39.84599024 404.69508175 38.48031244 404.6989675 37.11463928 404.70397949 C34.26259942 404.70985386 31.41106304 404.70137805 28.55908203 404.68261719 C24.91508725 404.65980594 21.2722697 404.6729758 17.62831783 404.69690704 C14.81172409 404.71140313 11.99540674 404.70674224 9.1788044 404.69639587 C7.18584039 404.69245532 5.19286535 404.70453711 3.19993591 404.71691895 C-4.73521914 404.63479098 -8.68441655 404.11391601 -14.39770508 398.56347656 C-18.38762991 393.55939024 -18.92254376 389.86388021 -19.06958008 383.64941406 C-19.09036118 382.92118942 -19.11114227 382.19296478 -19.1325531 381.44267273 C-19.19786129 379.11975406 -19.2568462 376.79672375 -19.31567383 374.47363281 C-19.35887688 372.89744946 -19.40249175 371.32127734 -19.4465332 369.74511719 C-19.55352343 365.88390306 -19.65484344 362.02257679 -19.75317383 358.16113281 C-20.35677734 357.95020996 -20.96038086 357.73928711 -21.58227539 357.52197266 C-24.39218742 356.5348076 -27.19831816 355.53757686 -30.00317383 354.53613281 C-31.00848145 354.17729004 -32.01378906 353.81844727 -33.04956055 353.44873047 C-39.54031371 351.08740851 -45.54106013 348.48690848 -51.51098633 344.99707031 C-53.68954546 343.90853256 -53.68954546 343.90853256 -55.62451172 344.84350586 C-58.1714832 346.42006339 -59.98676074 348.23834825 -62.05395508 350.40722656 C-62.86670898 351.24447266 -63.67946289 352.08171875 -64.5168457 352.94433594 C-66.20849569 354.70598523 -67.89604243 356.47158442 -69.5793457 358.24121094 C-74.77387201 363.57513258 -78.65258066 367.2284049 -86.12426758 368.59472656 C-86.80618164 368.59601563 -87.4880957 368.59730469 -88.19067383 368.59863281 C-89.20967773 368.62763672 -89.20967773 368.62763672 -90.24926758 368.65722656 C-98.58891154 367.00491021 -103.98074737 361.52457081 -109.74145508 355.70410156 C-110.97897774 354.47231926 -110.97897774 354.47231926 -112.24150085 353.21565247 C-113.97500146 351.48486255 -115.70350628 349.74905609 -117.42724609 348.00854492 C-120.06088041 345.35346526 -122.7152072 342.72043241 -125.37231445 340.08886719 C-127.05914554 338.39939321 -128.74473558 336.70867902 -130.42895508 335.01660156 C-131.2195784 334.23407516 -132.01020172 333.45154877 -132.82478333 332.64530945 C-137.56149756 327.82730999 -140.91236405 323.77734338 -142.15161133 316.97363281 C-141.95668401 301.89925332 -127.72288863 291.97902454 -117.75317383 282.16113281 C-119.2231408 277.46014932 -121.10075312 273.01631484 -123.12817383 268.53613281 C-130.75317383 251.41214166 -130.75317383 251.41214166 -130.75317383 246.16113281 C-131.75171387 246.14655029 -132.75025391 246.13196777 -133.77905273 246.11694336 C-137.50303989 246.05873214 -141.22643675 245.98150204 -144.94995117 245.89868164 C-146.55792623 245.86553918 -148.16601464 245.83747428 -149.77416992 245.81469727 C-152.09318088 245.78095314 -154.41116314 245.72863088 -156.72973633 245.67285156 C-157.44247711 245.66646164 -158.1552179 245.66007172 -158.88955688 245.65348816 C-164.39716242 245.49322644 -168.53436542 244.20783239 -172.61645508 240.44238281 C-173.09469727 239.85457031 -173.57293945 239.26675781 -174.06567383 238.66113281 C-174.55680664 238.07332031 -175.04793945 237.48550781 -175.55395508 236.87988281 C-177.91956236 233.4894359 -177.8880723 230.40817367 -177.91430664 226.40795898 C-177.92391418 225.22630661 -177.93352173 224.04465424 -177.94342041 222.82719421 C-177.94767029 221.54907364 -177.95192017 220.27095306 -177.95629883 218.95410156 C-177.9619989 217.64081375 -177.96769897 216.32752594 -177.97357178 214.97444153 C-177.98407221 212.19283665 -177.98992089 209.41126058 -177.9934082 206.62963867 C-177.99888602 203.07544762 -178.0229023 199.521641 -178.05138016 195.9675703 C-178.07455254 192.56725501 -178.07645936 189.1669917 -178.08129883 185.76660156 C-178.09364563 184.49455368 -178.10599243 183.2225058 -178.11871338 181.91191101 C-178.11571228 180.72080215 -178.11271118 179.5296933 -178.10961914 178.30249023 C-178.11508759 176.73720833 -178.11508759 176.73720833 -178.1206665 175.14030457 C-177.61049399 171.00446286 -176.10290781 167.64404055 -173.28833008 164.55175781 C-167.71120706 160.23207632 -164.18877467 158.86312735 -157.14379883 158.74707031 C-156.05358429 158.71802109 -156.05358429 158.71802109 -154.94134521 158.68838501 C-152.62873935 158.6287901 -150.31608316 158.58228523 -148.00317383 158.53613281 C-146.431538 158.49793445 -144.8599227 158.45888164 -143.28833008 158.41894531 C-139.44344541 158.32310538 -135.59846276 158.23900086 -131.75317383 158.16113281 C-131.54225098 157.58782227 -131.33132812 157.01451172 -131.11401367 156.42382812 C-123.63579861 136.19247691 -123.63579861 136.19247691 -118.68676758 127.43847656 C-117.55405933 124.67542673 -117.69603488 123.91619663 -118.75317383 121.16113281 C-120.58015839 118.95301471 -120.58015839 118.95301471 -122.90161133 116.79003906 C-124.16231445 115.55737305 -124.16231445 115.55737305 -125.44848633 114.29980469 C-126.3327832 113.44966797 -127.21708008 112.59953125 -128.12817383 111.72363281 C-129.86978007 110.04221444 -131.60693094 108.35616624 -133.33911133 106.66503906 C-134.11303223 105.92068604 -134.88695312 105.17633301 -135.68432617 104.40942383 C-139.87925027 99.85064922 -141.54484201 95.92152938 -142.00317383 89.84863281 C-141.2371875 78.55033445 -132.01407042 71.26747616 -124.46411133 63.70410156 C-123.46463974 62.69963737 -123.46463974 62.69963737 -122.44497681 61.67488098 C-121.04966393 60.27454811 -119.65303305 58.87552736 -118.25512695 57.4777832 C-116.12137337 55.34182533 -113.99577171 53.19796709 -111.87036133 51.05371094 C-110.50626759 49.68668576 -109.14170076 48.32013246 -107.77661133 46.95410156 C-106.8311293 45.99784126 -106.8311293 45.99784126 -105.86654663 45.02226257 C-100.31493035 39.4992243 -95.88913043 36.50579586 -88.00317383 35.84863281 C-79.15978509 36.05921379 -73.94745926 41.63860534 -68.18481445 47.67089844 C-66.42351142 49.55566343 -64.66575283 51.44374632 -62.91137695 53.33496094 C-62.06124023 54.22248047 -61.21110352 55.11 -60.33520508 56.02441406 C-59.5744165 56.84208252 -58.81362793 57.65975098 -58.02978516 58.50219727 C-55.86623762 60.45016637 -55.86623762 60.45016637 -53.11962891 59.99243164 C-50.45714882 59.05714384 -48.10685086 57.88748152 -45.62817383 56.53613281 C-37.32803897 52.25085016 -28.54606298 49.2699158 -19.75317383 46.16113281 C-19.73915527 44.76991211 -19.73915527 44.76991211 -19.72485352 43.35058594 C-19.68057537 39.87605401 -19.61884669 36.40270875 -19.5456543 32.92871094 C-19.51760443 31.43142834 -19.49631109 29.93400206 -19.48217773 28.43652344 C-19.30665428 10.8841777 -19.30665428 10.8841777 -13.27148438 4.62426758 C-8.93392548 0.78108991 -5.63529916 0.03695761 0 0 Z " fill="#000000" transform="translate(192.753173828125,107.8388671875)"/>
<path d="M0 0 C1.18464844 -0.03738281 2.36929687 -0.07476562 3.58984375 -0.11328125 C13.33296143 -0.21214039 13.33296143 -0.21214039 16.40625 2.7109375 C18.53642681 6.01271156 18.92773811 7.52185709 18.125 11.375 C16.475 13.025 14.825 14.675 13.125 16.375 C6.855 16.375 0.585 16.375 -5.875 16.375 C-5.875 38.485 -5.875 60.595 -5.875 83.375 C16.235 83.375 38.345 83.375 61.125 83.375 C61.125 61.265 61.125 39.155 61.125 16.375 C54.855 16.375 48.585 16.375 42.125 16.375 C37.125 11.375 37.125 11.375 36.5 8.375 C37.13783613 5.31338658 37.9178278 3.5828555 40.19433594 1.42236328 C44.77289302 -1.06145183 50.50280951 -0.28649976 55.5625 -0.1875 C56.77744141 -0.19845703 57.99238281 -0.20941406 59.24414062 -0.22070312 C70.49469181 -0.12823284 70.49469181 -0.12823284 75.125 4.375 C77.67091474 8.08864761 77.4207525 12.0160578 77.41552734 16.35302734 C77.42224457 17.15352005 77.42896179 17.95401276 77.43588257 18.77876282 C77.45486758 21.42288433 77.45878701 24.06675208 77.4609375 26.7109375 C77.4673651 28.55172835 77.47409343 30.39251818 77.48110962 32.23330688 C77.49308365 36.09175993 77.49679031 39.95012343 77.49560547 43.80859375 C77.49540228 48.7472637 77.52270398 53.68535822 77.55714989 58.62389183 C77.57941242 62.42608261 77.58344321 66.22813478 77.58238602 70.03038406 C77.58474296 71.85081592 77.5935718 73.67125154 77.60905075 75.49161911 C77.62869784 78.04088114 77.62287824 80.58890057 77.61083984 83.13818359 C77.62207886 83.88643906 77.63331787 84.63469452 77.64489746 85.40562439 C77.58360449 90.52623666 76.4350069 93.48256878 73.125 97.375 C69.59905834 100.11019976 65.40888711 99.66371604 61.13110352 99.6496582 C60.32900452 99.65476913 59.52690552 99.65988007 58.70050049 99.66514587 C56.05155964 99.67903513 53.40287916 99.67808564 50.75390625 99.67578125 C48.91071984 99.6796685 47.06753433 99.68400323 45.22434998 99.68876648 C41.36169531 99.69622722 37.49913205 99.69593843 33.63647461 99.69067383 C28.68882993 99.6848789 23.74155957 99.70181142 18.79397678 99.7250185 C14.98754187 99.73975673 11.18119709 99.74062743 7.37473869 99.73750877 C5.55070186 99.73802192 3.72665998 99.74325851 1.90265083 99.75332069 C-0.64904926 99.76566978 -3.20002039 99.75890287 -5.75170898 99.74731445 C-6.50355972 99.75495819 -7.25541046 99.76260193 -8.03004456 99.77047729 C-12.48927965 99.72575975 -15.43892671 99.29393651 -18.875 96.375 C-21.91775341 91.80609263 -22.30779761 87.68589063 -22.26318359 82.33764648 C-22.26844055 81.55476257 -22.27369751 80.77187866 -22.27911377 79.965271 C-22.29225707 77.3920056 -22.28359691 74.81936482 -22.2734375 72.24609375 C-22.27545967 70.4506061 -22.2783723 68.65511925 -22.28213501 66.8596344 C-22.2865505 63.10303908 -22.28015156 59.34665823 -22.26611328 55.59008789 C-22.24900947 50.77923511 -22.25887499 45.96888403 -22.27683067 41.15804958 C-22.28767895 37.45282725 -22.28421759 33.74772358 -22.2764473 30.04249763 C-22.27444882 28.2687073 -22.27689219 26.49490613 -22.28388596 24.72112846 C-22.29151905 22.2414488 -22.27987125 19.76257849 -22.26318359 17.28295898 C-22.26925629 16.55295181 -22.27532898 15.82294464 -22.28158569 15.07081604 C-22.21467559 9.69435005 -20.8170359 6.64070855 -17.375 2.625 C-12.84568596 -1.14942837 -5.53888317 0.0658678 0 0 Z " fill="#000000" transform="translate(311.875,104.625)"/>
<path d="M0 0 C1.06950394 -0.01029488 1.06950394 -0.01029488 2.16061401 -0.02079773 C4.50181364 -0.03899954 6.84233901 -0.03523846 9.18359375 -0.02954102 C10.81974504 -0.03410556 12.45589441 -0.03941195 14.09204102 -0.04542542 C17.51489063 -0.05434314 20.93750674 -0.05194822 24.36035156 -0.04199219 C28.73852916 -0.03049583 33.115901 -0.05073043 37.49397278 -0.07990932 C40.87069789 -0.09828625 44.24723034 -0.09797608 47.62399292 -0.0922718 C49.23787569 -0.09211882 50.8517717 -0.09814462 52.46560669 -0.11056328 C54.72497643 -0.12550302 56.98286301 -0.11477694 59.2421875 -0.09765625 C61.16695923 -0.097407 61.16695923 -0.097407 63.13061523 -0.09715271 C67.86696082 0.58294951 71.07111017 2.3509459 73.97793579 6.20132446 C74.90779533 9.38596654 74.89225391 12.33146511 74.91162109 15.64770508 C74.91833832 16.37016922 74.92505554 17.09263336 74.93197632 17.83699036 C74.95094821 20.22139394 74.95488008 22.60551591 74.95703125 24.98999023 C74.96345982 26.65141922 74.97018823 28.31284707 74.97720337 29.97427368 C74.98917415 33.45610172 74.99288441 36.93783057 74.99169922 40.41967773 C74.99149606 44.87410028 75.01879578 49.32788463 75.05324364 53.78215599 C75.07551745 57.21376447 75.07953662 60.64521949 75.07847977 64.07689285 C75.08083509 65.71869735 75.08965484 67.36050611 75.1051445 69.00223923 C75.12481485 71.30248018 75.11896358 73.60134666 75.10693359 75.90161133 C75.10978363 77.20858978 75.11263367 78.51556824 75.11557007 79.8621521 C74.44933643 84.63433889 72.70054132 87.83216836 68.82481384 90.7618866 C65.63343991 91.69185601 62.68420437 91.66701067 59.36157227 91.67871094 C58.63750183 91.68382187 57.9134314 91.6889328 57.16741943 91.69419861 C54.77819512 91.70807814 52.3892598 91.70713912 50 91.70483398 C48.33617547 91.70872179 46.67235192 91.71305664 45.00852966 91.71781921 C41.52249941 91.72527787 38.03657043 91.72499271 34.55053711 91.71972656 C30.08714991 91.71393207 25.6241777 91.73086396 21.16085911 91.75407124 C17.72500695 91.76881556 14.28925458 91.76967934 10.85337639 91.76656151 C9.2079683 91.76707436 7.56255457 91.77230535 5.9171772 91.78237343 C3.6145151 91.79473447 1.31265933 91.78794881 -0.98999023 91.77636719 C-2.95378883 91.77731133 -2.95378883 91.77731133 -4.95726013 91.77827454 C-8.70644556 91.36823011 -10.48952751 90.8079561 -13.37890625 88.40405273 C-16.29973374 83.94163724 -16.75714455 80.3897141 -16.76708984 75.11694336 C-16.7723468 74.41369431 -16.77760376 73.71044525 -16.78302002 72.98588562 C-16.79614986 70.67712745 -16.78750741 68.36906708 -16.77734375 66.06030273 C-16.77936651 64.44657256 -16.78227964 62.83284327 -16.78604126 61.21911621 C-16.79045509 57.84333561 -16.78406405 54.46779378 -16.77001953 51.09204102 C-16.75292805 46.77450808 -16.7627743 42.4575347 -16.78073692 38.14002228 C-16.79160031 34.80962949 -16.78811675 31.4793684 -16.78035355 28.14897156 C-16.77835859 26.55742831 -16.78078597 24.96587294 -16.78779221 23.37434387 C-16.79544907 21.14629646 -16.78374455 18.91914327 -16.76708984 16.69116211 C-16.76470306 15.42574585 -16.76231628 14.16032959 -16.75985718 12.85656738 C-16.32979637 8.95897552 -15.57859688 6.65123064 -13.37890625 3.40405273 C-8.94516137 0.3958549 -5.2844462 0.02225078 0 0 Z M-0.37890625 16.40405273 C-0.37890625 35.87405273 -0.37890625 55.34405273 -0.37890625 75.40405273 C19.09109375 75.40405273 38.56109375 75.40405273 58.62109375 75.40405273 C58.62109375 55.93405273 58.62109375 36.46405273 58.62109375 16.40405273 C39.15109375 16.40405273 19.68109375 16.40405273 -0.37890625 16.40405273 Z " fill="#000000" transform="translate(422.37890625,59.595947265625)"/>
<path d="M0 0 C10.43998873 10.9560338 14.27069024 23.60910843 13.984375 38.41796875 C13.08709077 51.57331332 7.62713328 63.23614681 -2.109375 72.2265625 C-13.93246563 81.81401417 -27.15379431 85.32233414 -42.2578125 83.96875 C-55.40989599 81.7739222 -67.00425127 75.2755191 -75.078125 64.55078125 C-82.90150685 52.18669285 -86.33502725 38.48487983 -83.1328125 24.09375 C-79.4561991 10.9220295 -72.7772012 0.03687537 -60.85546875 -7.203125 C-40.7257521 -18.42952843 -17.07843137 -15.36467874 0 0 Z M-59.234375 12.75 C-65.35488987 19.46129815 -67.68928492 26.56773797 -68.6328125 35.53125 C-67.51955085 45.73614848 -63.62523662 54.73811419 -55.5078125 61.28125 C-47.21724595 66.91820718 -39.28187869 69.20388137 -29.2578125 67.96875 C-20.48296214 66.15616121 -14.08019528 61.7143214 -8.2578125 54.96875 C-3.11217403 46.88950615 -1.39146732 39.48617064 -2.2578125 29.96875 C-4.51476475 20.05719466 -9.53986526 12.05528751 -18.1328125 6.53125 C-32.32789626 -1.2566303 -47.81045231 1.36304793 -59.234375 12.75 Z " fill="#000000" transform="translate(252.2578125,275.03125)"/>
<path d="M0 0 C0.90458954 -0.00960754 1.80917908 -0.01921509 2.74118042 -0.02911377 C3.71620514 -0.03336365 4.69122986 -0.03761353 5.69580078 -0.04199219 C7.20317307 -0.0505423 7.20317307 -0.0505423 8.74099731 -0.05926514 C10.86768542 -0.06871296 12.99438815 -0.07524825 15.12109375 -0.07910156 C18.37151661 -0.08880866 21.62130755 -0.11983504 24.87158203 -0.15136719 C26.93798453 -0.15789724 29.00439154 -0.16314771 31.07080078 -0.16699219 C32.52726517 -0.18551239 32.52726517 -0.18551239 34.01315308 -0.20440674 C38.9964903 -0.18798826 42.49195032 -0.13090766 46.51611328 3.16113281 C49.86547278 6.86935226 50.6340313 10.28766597 50.66137695 15.19189453 C50.66775681 15.97305634 50.67413666 16.75421814 50.68070984 17.55905151 C50.68182266 18.39453522 50.68293549 19.23001892 50.68408203 20.09082031 C50.68907463 21.39274826 50.68907463 21.39274826 50.69416809 22.72097778 C50.69922451 24.55502799 50.70157681 26.38908736 50.70141602 28.22314453 C50.70359993 31.01903563 50.72176209 33.81453036 50.74072266 36.61035156 C50.74365742 38.39550647 50.74564166 40.18066324 50.74658203 41.96582031 C50.75376755 42.79725555 50.76095306 43.6286908 50.76835632 44.48532104 C50.74455659 50.57688418 50.21026675 55.20634035 46.07861328 59.97363281 C42.78001122 62.78951262 40.42628166 63.28442597 36.23168945 63.32226562 C35.37036911 63.33187317 34.50904877 63.34148071 33.62162781 63.35137939 C32.6934877 63.35562927 31.7653476 63.35987915 30.80908203 63.36425781 C29.37185539 63.37280792 29.37185539 63.37280792 27.90559387 63.38153076 C25.87725935 63.39097826 23.8489095 63.39751375 21.82055664 63.40136719 C18.72596259 63.41106279 15.63203556 63.44208458 12.53759766 63.47363281 C10.56559639 63.48016411 8.59359037 63.48541408 6.62158203 63.48925781 C5.69951462 63.50160461 4.7774472 63.51395142 3.82743835 63.52667236 C-1.37645826 63.50873733 -4.97636732 63.0611994 -9.48388672 60.16113281 C-14.29264049 55.18655994 -13.6536472 48.66292932 -13.68701172 42.16894531 C-13.69556183 40.8726973 -13.69556183 40.8726973 -13.70428467 39.55026245 C-13.71370695 37.72639175 -13.7202576 35.90250423 -13.72412109 34.07861328 C-13.73382973 31.30242995 -13.76488031 28.52698652 -13.79638672 25.75097656 C-13.80291745 23.97363718 -13.80816764 22.19629254 -13.81201172 20.41894531 C-13.82435852 19.59580841 -13.83670532 18.77267151 -13.84942627 17.92459106 C-13.82638929 11.90521361 -12.85109007 7.120137 -8.98388672 2.28613281 C-6.13694311 0.1509251 -3.42048779 0.02936115 0 0 Z M2.51611328 16.16113281 C2.51611328 26.39113281 2.51611328 36.62113281 2.51611328 47.16113281 C13.07611328 47.16113281 23.63611328 47.16113281 34.51611328 47.16113281 C34.51611328 36.93113281 34.51611328 26.70113281 34.51611328 16.16113281 C23.95611328 16.16113281 13.39611328 16.16113281 2.51611328 16.16113281 Z " fill="#000000" transform="translate(285.48388671875,224.8388671875)"/>
<path d="M0 0 C0.92130707 -0.0127597 1.84261414 -0.02551941 2.7918396 -0.03866577 C3.78043976 -0.04089142 4.76903992 -0.04311707 5.78759766 -0.04541016 C6.81092194 -0.05206696 7.83424622 -0.05872375 8.88858032 -0.06558228 C11.05216679 -0.07570164 13.21578442 -0.08039952 15.37939453 -0.08007812 C18.68265457 -0.08444752 21.98457429 -0.12076525 25.28759766 -0.15869141 C27.39175976 -0.16456051 29.4959282 -0.16852927 31.60009766 -0.17041016 C33.0769252 -0.19196671 33.0769252 -0.19196671 34.58358765 -0.21395874 C40.30598226 -0.17599955 43.89597185 0.28113782 48.32666016 4.29052734 C50.13453602 7.23641937 50.58137248 9.45400091 50.60131836 12.88793945 C50.61561638 14.24471046 50.61561638 14.24471046 50.63020325 15.62889099 C50.62929184 16.59875443 50.62838043 17.56861786 50.62744141 18.56787109 C50.63172653 19.571371 50.63601166 20.57487091 50.64042664 21.60877991 C50.64616551 23.72949469 50.64667346 25.85022916 50.64233398 27.97094727 C50.63917521 31.21258179 50.66263505 34.45330258 50.68798828 37.69482422 C50.69026145 39.75667203 50.69096469 41.81852229 50.68994141 43.88037109 C50.69915115 44.8482103 50.7083609 45.8160495 50.71784973 46.81321716 C50.68374842 51.78249802 50.6080194 55.27919942 47.32666016 59.29052734 C43.79583662 62.37999794 40.78385316 63.4087057 36.1340332 63.45166016 C35.29273361 63.4612677 34.45143402 63.47087524 33.5846405 63.48077393 C32.22524101 63.48714874 32.22524101 63.48714874 30.83837891 63.49365234 C29.90242386 63.49935242 28.96646881 63.50505249 28.00215149 63.51092529 C26.02089568 63.52037217 24.03962419 63.52690804 22.05834961 63.53076172 C19.0361773 63.54045671 16.01468819 63.57147873 12.99267578 63.60302734 C11.06624752 63.60955873 9.1398144 63.61480867 7.21337891 63.61865234 C5.86308846 63.63717255 5.86308846 63.63717255 4.48551941 63.65606689 C-0.62290704 63.63804658 -4.36045885 63.32926624 -8.67333984 60.29052734 C-13.31048663 55.23907334 -13.26117282 50.61569988 -13.20458984 44.10693359 C-13.20841675 43.13320297 -13.21224365 42.15947235 -13.21618652 41.15623474 C-13.21890081 39.10292524 -13.21157355 37.04958087 -13.19482422 34.99633789 C-13.17343122 31.86639654 -13.19463075 28.73875654 -13.22021484 25.60888672 C-13.21757103 23.60823064 -13.21244494 21.60757599 -13.20458984 19.60693359 C-13.21268677 18.67756485 -13.22078369 17.74819611 -13.22912598 16.79066467 C-13.14339065 10.79984031 -12.2808828 7.1404477 -8.67333984 2.29052734 C-5.73282114 0.43030481 -3.44950093 0.03254773 0 0 Z M3.32666016 16.29052734 C3.32666016 26.52052734 3.32666016 36.75052734 3.32666016 47.29052734 C13.55666016 47.29052734 23.78666016 47.29052734 34.32666016 47.29052734 C34.32666016 37.06052734 34.32666016 26.83052734 34.32666016 16.29052734 C24.09666016 16.29052734 13.86666016 16.29052734 3.32666016 16.29052734 Z " fill="#000000" transform="translate(424.67333984375,179.70947265625)"/>
<path d="M0 0 C1.04269043 -0.00478363 2.08538086 -0.00956726 3.15966797 -0.01449585 C5.35841383 -0.01788974 7.55721051 -0.00872328 9.75585938 0.01220703 C13.11442976 0.03897824 16.46965812 0.0124401 19.828125 -0.01953125 C21.96875735 -0.01622706 24.10938763 -0.00982065 26.25 0 C27.75022705 -0.01518173 27.75022705 -0.01518173 29.28076172 -0.03067017 C33.66378251 0.04272724 37.09586527 0.12877646 40.6796875 2.83056641 C45.43571998 8.34160005 45.43350982 13.7747349 45.42578125 20.71875 C45.43006638 21.57912872 45.4343515 22.43950745 45.43876648 23.32595825 C45.44448933 25.13965987 45.44502517 26.95338442 45.44067383 28.76708984 C45.4375178 31.52351573 45.4609846 34.2788631 45.48632812 37.03515625 C45.48860192 38.80468616 45.48930424 40.57421893 45.48828125 42.34375 C45.497491 43.15858856 45.50670074 43.97342712 45.51618958 44.81295776 C45.47163823 50.39804736 44.46969943 54.57281554 42.125 59.6640625 C38.14115484 62.83070866 34.11968289 63.77493759 29.11010742 63.82519531 C27.94320625 63.83960663 27.94320625 63.83960663 26.75273132 63.85430908 C25.92038467 63.85855896 25.08803802 63.86280884 24.23046875 63.8671875 C22.93209831 63.87573761 22.93209831 63.87573761 21.60749817 63.88446045 C19.77765113 63.89389451 17.94778722 63.90043809 16.11791992 63.90429688 C13.33286554 63.91399161 10.54855287 63.94502532 7.76367188 63.9765625 C5.98177519 63.98309433 4.19987326 63.98834409 2.41796875 63.9921875 C1.59169479 64.0045343 0.76542084 64.0168811 -0.08589172 64.02960205 C-6.53398782 64.00502547 -11.51913053 63.01993197 -16.25 58.2890625 C-19.36774932 53.25269821 -19.03476525 47.88471655 -19.04296875 42.109375 C-19.04629715 41.28960175 -19.04962555 40.46982849 -19.05305481 39.62521362 C-19.05810393 37.89549315 -19.06046376 36.16576299 -19.06030273 34.43603516 C-19.0624869 31.8048479 -19.08065748 29.17408181 -19.09960938 26.54296875 C-19.10254428 24.85677226 -19.10452843 23.17057379 -19.10546875 21.484375 C-19.11265427 20.70498566 -19.11983978 19.92559631 -19.12724304 19.12258911 C-19.10121711 12.82789236 -18.64602955 7.76150185 -14.4296875 2.76806641 C-10.07848093 -0.43871638 -5.20363602 -0.05265883 0 0 Z M-2.875 15.6640625 C-2.875 26.2240625 -2.875 36.7840625 -2.875 47.6640625 C7.685 47.6640625 18.245 47.6640625 29.125 47.6640625 C29.125 37.1040625 29.125 26.5440625 29.125 15.6640625 C18.565 15.6640625 8.005 15.6640625 -2.875 15.6640625 Z " fill="#000000" transform="translate(349.875,-0.6640625)"/>
</svg>
